HIERARCHY
ROOT Hips
{
	OFFSET 0.000000 8.830580 0.000000
	CHANNELS 6 Xposition Yposition Zposition Zrotation Yrotation Xrotation 
	JOINT Spine
	{
		OFFSET 0.000000 0.010000 0.000000
		CHANNELS 3 Zrotation Yrotation Xrotation
		JOINT Spine1
		{
			OFFSET 0.000000 2.459130 0.000000
			CHANNELS 3 Zrotation Yrotation Xrotation
			JOINT Neck
			{
				OFFSET 0.000000 2.484630 0.000000
				CHANNELS 3 Zrotation Yrotation Xrotation
				JOINT Head_virtual
				{
					OFFSET 0.000000 0.000000 0.000000
					CHANNELS 3 Zrotation Yrotation Xrotation
					JOINT Head
					{
						OFFSET 0.000000 0.927525 0.000000
						CHANNELS 3 Zrotation Yrotation Xrotation
						End Site
						{
							OFFSET 0.000000 0.000000 0.000000
						}
					}
				}
				JOINT LeftUpArm_virtual
				{
					OFFSET 0.000000 0.000000 0.000000
					CHANNELS 3 Zrotation Yrotation Xrotation
					JOINT LeftUpArm
					{
						OFFSET 1.248820 0.000000 0.000000
						CHANNELS 3 Zrotation Yrotation Xrotation
						JOINT LeftForeArm
						{
							OFFSET 2.597580 0.000000 0.000000
							CHANNELS 3 Zrotation Yrotation Xrotation
							JOINT LeftHand
							{
								OFFSET 2.455420 0.000000 0.000000
								CHANNELS 3 Zrotation Yrotation Xrotation
								End Site
								{
									OFFSET 0.000000 0.000000 0.000000
								}
							}
						}
					}
				}
				JOINT RightUpArm_virtual
				{
					OFFSET -0.000000 -0.000000 -0.000000
					CHANNELS 3 Zrotation Yrotation Xrotation
					JOINT RightUpArm
					{
						OFFSET -1.248820 -0.000000 -0.000000
						CHANNELS 3 Zrotation Yrotation Xrotation
						JOINT RightForeArm
						{
							OFFSET -2.597580 -0.000000 -0.000000
							CHANNELS 3 Zrotation Yrotation Xrotation
							JOINT RightHand
							{
								OFFSET -2.455420 -0.000000 -0.000000
								CHANNELS 3 Zrotation Yrotation Xrotation
								End Site
								{
									OFFSET 0.000000 0.000000 0.000000
								}
							}
						}
					}
				}
			}
		}
	}
	JOINT LeftUpLeg
	{
		OFFSET 1.271939 0.000000 0.000000
		CHANNELS 3 Zrotation Yrotation Xrotation
		JOINT LeftLowLeg
		{
			OFFSET 0.000000 -4.342910 0.000000
			CHANNELS 3 Zrotation Yrotation Xrotation
			JOINT LeftFoot
			{
				OFFSET 0.000000 -4.487670 0.000000
				CHANNELS 3 Zrotation Yrotation Xrotation
				JOINT LeftToeBase
				{
					OFFSET 0.000000 0.000000 1.515070
					CHANNELS 3 Zrotation Yrotation Xrotation
					End Site
					{
						OFFSET 0.000000 0.000000 0.000000
					}
				}
			}
		}
	}
	JOINT RightUpLeg
	{
		OFFSET -1.271939 0.000000 0.000000
		CHANNELS 3 Zrotation Yrotation Xrotation
		JOINT RightLowLeg
		{
			OFFSET 0.000000 -4.342910 0.000000
			CHANNELS 3 Zrotation Yrotation Xrotation
			JOINT RightFoot
			{
				OFFSET 0.000000 -4.487670 0.000000
				CHANNELS 3 Zrotation Yrotation Xrotation
				JOINT RightToeBase
				{
					OFFSET 0.000000 0.000000 1.515070
					CHANNELS 3 Zrotation Yrotation Xrotation
					End Site
					{
						OFFSET 0.000000 0.000000 0.000000
					}
				}
			}
		}
	}
}
MOTION
Frames: 8
Frame Time: 0.041667
-19.119165 6.993306 36.445463 -174.025790 -0.158214 168.403255 4.012876 -3.795659 17.453611 1.196801 1.865321 -6.726481 0.000000 0.000000 0.000000 -5.906209 -4.260479 28.033023 19.151775 10.390101 -87.438176 -31.660500 3.083960 10.041800 -24.280300 -20.912600 26.019501 -180.000000 -83.705498 180.000000 -22.879200 32.378101 -109.885002 21.815001 0.751048 6.234985 4.700070 27.025000 18.163401 -180.000000 72.535004 -180.000000 12.083000 -3.073220 -50.904499 1.694713 7.951183 -47.940323 0.000000 0.000000 60.678699 -13.236840 5.502584 3.802548 0.000000 0.000000 -37.940300 5.928547 -7.843187 -46.997375 0.000000 0.000000 65.506798 13.639773 2.071809 6.813105 0.000000 0.000000 -44.149000 
-19.119429 6.995295 36.443866 -174.020666 -0.141895 168.457649 4.294046 -3.994245 17.434599 0.446388 1.823642 -6.921383 0.000000 0.000000 0.000000 -5.371186 -4.718834 27.906804 18.894408 10.860336 -87.473531 -31.422800 2.994400 10.124400 -24.314800 -20.848301 26.169100 180.000000 -84.287598 -180.000000 -22.838200 31.735001 -110.204002 21.790600 0.719976 5.730988 4.224070 27.669001 16.369499 180.000000 71.330002 180.000000 12.679500 -1.299430 -50.926300 1.688815 7.989924 -47.965952 0.000000 0.000000 60.661499 -13.211529 5.495671 3.792860 0.000000 0.000000 -37.943001 5.947004 -7.853833 -47.019047 0.000000 0.000000 65.473801 13.637174 2.098899 6.828363 0.000000 0.000000 -44.188000 
-19.119695 6.997617 36.442086 -174.016033 -0.140304 168.520439 4.556467 -4.168126 17.416031 -0.253554 1.794155 -7.127933 0.000000 0.000000 0.000000 -4.882742 -5.136367 27.751785 18.732222 11.297537 -87.549358 -31.215500 2.924480 10.258600 -24.358000 -20.866600 26.318001 -180.000000 -84.900101 180.000000 -22.511101 31.317900 -110.191002 21.734400 0.683227 5.002014 3.898190 28.263700 14.606500 180.000000 70.240997 180.000000 13.601100 1.069840 -51.415901 1.682910 8.002237 -47.996583 0.000000 0.000000 60.637501 -13.205372 5.486325 3.787375 0.000000 0.000000 -37.925301 5.964265 -7.878127 -47.045405 0.000000 0.000000 65.439003 13.623250 2.116767 6.829372 0.000000 0.000000 -44.189699 
-19.119715 7.000074 36.440343 -174.012042 -0.125197 168.584137 4.778765 -4.293364 17.398676 -0.874185 1.789394 -7.303131 0.000000 0.000000 0.000000 -4.335878 -5.676020 27.533357 18.329041 11.734268 -87.608701 -31.067101 2.878400 10.356800 -24.388300 -20.920601 26.475401 -180.000000 -85.400200 180.000000 -22.629900 31.348000 -110.113998 21.656900 0.549749 4.403992 3.463040 28.984800 12.628500 -180.000000 69.166000 -180.000000 14.173700 3.140580 -51.875198 1.681683 8.022000 -48.024505 0.000000 0.000000 60.609798 -13.198600 5.492073 3.784197 0.000000 0.000000 -37.946800 5.980638 -7.873207 -47.074366 0.000000 0.000000 65.401398 13.617689 2.125277 6.853837 0.000000 0.000000 -44.206400 
-19.119917 7.002117 36.438580 -174.026076 -0.120697 168.622473 5.088268 -4.561530 17.335943 -1.714978 1.694165 -7.401234 0.000000 0.000000 0.000000 -3.847846 -6.039636 27.256039 18.033022 12.154517 -87.604187 -30.779600 2.935160 10.397800 -24.452600 -20.947100 26.482000 -180.000000 -85.889999 180.000000 -22.845100 31.069099 -110.399002 21.776699 0.654253 4.084991 2.774830 29.690001 10.273800 -180.000000 68.140999 -180.000000 14.745400 5.216770 -51.896900 1.665121 8.021334 -48.027059 0.000000 0.000000 60.579498 -13.199576 5.509770 3.772354 0.000000 0.000000 -37.905199 5.972470 -7.878598 -47.085576 0.000000 0.000000 65.380402 13.617717 2.143679 6.859564 0.000000 0.000000 -44.224701 
-19.120292 7.004755 36.436891 -174.024488 -0.124497 168.700874 5.295670 -4.606324 17.318097 -2.255339 1.751735 -7.689505 0.000000 0.000000 0.000000 -3.284557 -6.663532 27.186731 17.697605 12.542981 -87.623406 -30.634001 2.729460 10.644300 -24.573999 -20.932301 26.577900 -180.000000 -86.421600 180.000000 -22.498800 30.914101 -110.136002 21.718901 0.492145 3.657013 2.164050 30.254601 8.117310 180.000000 66.950996 180.000000 13.880400 6.130150 -51.250999 1.661926 7.998405 -48.064040 0.000000 0.000000 60.538300 -13.213635 5.524353 3.767022 0.000000 0.000000 -37.905500 5.980444 -7.884144 -47.126608 0.000000 0.000000 65.342796 13.628295 2.156481 6.876304 0.000000 0.000000 -44.266100 
-19.120413 7.006480 36.435815 -174.022801 -0.148605 168.735658 5.441219 -4.686189 17.346516 -2.658001 1.744987 -7.910402 0.000000 0.000000 0.000000 -2.912796 -6.995306 26.960505 17.648735 12.804671 -87.606941 -30.510300 2.646710 10.818400 -24.704700 -20.949499 26.729799 -180.000000 -86.919403 180.000000 -21.953400 30.661400 -109.607002 21.668600 0.481634 3.317993 1.375450 30.770901 6.029020 -180.000000 65.528999 -180.000000 10.231800 5.092830 -45.210602 1.658272 7.962471 -48.068137 0.000000 0.000000 60.498600 -13.211221 5.538667 3.764701 0.000000 0.000000 -37.931400 5.977838 -7.897554 -47.139939 0.000000 0.000000 65.326202 13.614947 2.149663 6.875622 0.000000 0.000000 -44.255501 
-19.120666 7.007845 36.435140 -174.023332 -0.161877 168.761747 5.606868 -4.749067 17.399030 -3.094977 1.762634 -8.170983 0.000000 0.000000 0.000000 -2.486595 -7.394507 26.692702 17.511769 13.049436 -87.490658 -30.398500 2.524160 10.985300 -24.811899 -20.899799 26.772499 -180.000000 -87.344498 180.000000 -22.360701 30.275400 -109.598000 21.601801 0.492857 3.075012 0.567827 31.167700 4.013480 -180.000000 64.014000 -180.000000 6.294110 5.188800 -42.070801 1.655330 7.933274 -48.070750 0.000000 0.000000 60.471199 -13.249275 5.545676 3.759421 0.000000 0.000000 -37.957199 5.970377 -7.891640 -47.149465 0.000000 0.000000 65.311699 13.636823 2.147496 6.887121 0.000000 0.000000 -44.260900 
